<svg xmlns="http://www.w3.org/2000/svg" viewBox="0 0 166 34.558" xmlns:xlink="http://www.w3.org/1999/xlink"><g fill="#fff" viewBox="0 0 166 34.558" id="logo"><path d="M10.569 0L7.913 15.355 5.838 27.086H0l2.075-11.924L4.427.001zm17.569 17.762a11.357 11.357 0 01-.636 2.3H14.775c.415 1.826 1.964 2.269 3.569 2.269a5.034 5.034 0 003.68-1.328l3.929 3.6a11.071 11.071 0 01-8.079 3.016c-6.64 0-9.877-4.648-8.991-10.181a11.169 11.169 0 0111.066-9.434c5.588-.013 9.184 4.308 8.188 9.758zm-5.589-1.992a2.586 2.586 0 00-2.932-2.573 4.44 4.44 0 00-4.1 2.573zm28.469-7.249l-3.265 18.565h-6.17l.25-1.439a7.663 7.663 0 01-5.423 1.964 6.734 6.734 0 01-5.727-2.767 9.831 9.831 0 01-1.411-7.3c.8-4.9 4.454-9.545 10.071-9.545a5.61 5.61 0 015.008 2.38c.028.055.083.111.111.166v.028l1.881-2.048zm-9.96 5.34a5.8 5.8 0 00-1.023-.111 4.565 4.565 0 00-4.566 4.039 4.088 4.088 0 00.056 1.936 2.93 2.93 0 003.1 2.13 4.605 4.605 0 004.592-3.929v-.11c.331-2.046-.472-3.512-2.16-3.955zm65.681-5.312l-3.265 18.565h-6.17l.249-1.439a7.664 7.664 0 01-5.423 1.964 6.734 6.734 0 01-5.727-2.767 9.833 9.833 0 01-1.411-7.3c.8-4.9 4.454-9.545 10.071-9.545a5.609 5.609 0 015.008 2.38.273.273 0 01.11.138l.028.028 1.826-2.048v.028zm-9.988 5.285a5.8 5.8 0 00-1.024-.111c-.166 0-.3.028-.442.028a4.587 4.587 0 00-4.123 4.039 5.112 5.112 0 00-.055 1.107 3.72 3.72 0 00.138.83 2.816 2.816 0 002.711 2.1 1.825 1.825 0 00.388.028 4.605 4.605 0 004.593-3.929v-.11c.331-2.046-.471-3.512-2.187-3.982zM73.926 1.107l-4.537 26.007h-6.17l.249-1.494a7.776 7.776 0 01-5.451 1.992c-5.589 0-8-4.98-7.137-10.071.8-4.9 4.454-9.545 10.07-9.545a5.633 5.633 0 015.146 2.6l1.66-9.49zM61.642 13.779a4.611 4.611 0 00-4.593 4.039c-.415 2.407.83 4.039 3.182 4.039a4.545 4.545 0 004.565-3.818l.055-.388c.359-2.324-.885-3.9-3.21-3.873zm20.729-5.285c.341-1.694 1.637-2.378 3.591-2.241l1-5.727c-6.225-.359-9.794 2.6-10.762 7.968h-2.352l-1 5.893h2.3l-2.241 12.671h6.17l2.213-12.671h3.182l1.051-5.893zm47.276-.5a7.644 7.644 0 00-5.672 2.49 4.611 4.611 0 00-4.455-2.49 7.074 7.074 0 00-5.063 2.13l-.083.083-1.411-1.521-.194-.194h-4.26l-3.265 18.564h6.17l1.826-10.4c.415-1.716 1.411-2.85 3.071-2.85 1.55 0 2.1 1 1.854 2.6l-1.854 10.652h6.17l1.411-8.051.47-2.684a3.025 3.025 0 013.016-2.517c1.55 0 2.1 1 1.826 2.6l-1.134 6.53-.719 4.122h6.2l1.964-11.371c.795-4.786-1.747-7.696-5.869-7.696zm10.071-8l-2.684 15.161-2.075 11.924h6.17l2.075-11.731L145.86-.007zm19.2 8.521l-4.814 10.735-1.937-10.735h-6.529l4.149 17.818c-1.106 1.826-2.186 2.379-4.869 2.379l-1.052 5.782c5.312.443 9.379-1.632 12.7-7.968l9.435-18.011z"/></g></svg>